# xmcd
#
# Track frame offsets:
#	150
#	13265
#	25864
#	35690
#	47818
#	60032
#	72565
#	83849
#	94776
#	105445
#	118156
#	129041
#	139287
#	152337
#	163517
#	172233
#	185277
#	198178
#	211409
#	223899
#	236085
#
# Disc length: 3308 seconds
#
# Revision: 1
# Processed by: cddbd v1.5.1PL2 Copyright (c) Steve Scherf et al.
# Submitted via: audiograbber 1.83.01
#
DISCID=240cea15
DTITLE=Various Artist - (IEDS10001-10) Cradle Of Country and Western Music
DYEAR=1955
DGENRE=Country
TTITLE0=Hank Williams - Hey Good Lookin´
TTITLE1=Tennessee Ernie Ford - Stack-O-Lee
TTITLE2=Hank Williams - Honky Tonk Blues
TTITLE3=Eddie Miller - Don´t Break My Heart
TTITLE4=Hank Williams - Cold Cold Heart
TTITLE5=Jimmy Wakely - One Has My Name
TTITLE6=Tommy Scott - Gonna Paint The Town Red
TTITLE7=Johnny Hicks - Hamburger Hop
TTITLE8=Art Gunn - Boogie Woogie Blues
TTITLE9=Foy Willing - Texas Blues
TTITLE10=Buchanan Brothers - High Tempered Mama
TTITLE11=Ann Jones - Give Me A Hundred Reasons
TTITLE12=Tex Williams - Artistry In Western Swing
TTITLE13=Cotton Thompson - How Long
TTITLE14=Johnny Bond - Out On The Open Range
TTITLE15=Jimmie Revard - Holdin´ The Sack
TTITLE16=Jimmy Wyble - Huntin´ Business All The Time
TTITLE17=Wayne Raney - Pan American Boogie
TTITLE18=Jimmy Wyble - Goodbye My Heart
TTITLE19=Johnny Bond - Heart And Soul
TTITLE20=Jerry Irby - Trouble In Mind
EXTD=
EXTT0=
EXTT1=
EXTT2=
EXTT3=
EXTT4=
EXTT5=
EXTT6=
EXTT7=
EXTT8=
EXTT9=
EXTT10=
EXTT11=
EXTT12=
EXTT13=
EXTT14=
EXTT15=
EXTT16=
EXTT17=
EXTT18=
EXTT19=
EXTT20=
PLAYORDER=
